<svg xmlns="http://www.w3.org/2000/svg" viewBox="0 0 470.83 470.83">

    <path fill="currentColor"
        d="M454,0H16.82A16.74,16.74,0,0,0,0,16.67V58.33A16.74,16.74,0,0,0,16.82,75H454a16.74,16.74,0,0,0,16.82-16.67V16.67A16.74,16.74,0,0,0,454,0Z" />
    <path fill="currentColor"
        d="M454,395.83H16.82A16.74,16.74,0,0,0,0,412.49v41.67a16.74,16.74,0,0,0,16.82,16.67H454a16.74,16.74,0,0,0,16.82-16.67V412.49A16.74,16.74,0,0,0,454,395.83Z" />
    <path fill="currentColor"
        d="M454,197.91H16.82A16.75,16.75,0,0,0,0,214.58v41.67a16.74,16.74,0,0,0,16.82,16.66H454a16.74,16.74,0,0,0,16.82-16.66V214.58A16.75,16.75,0,0,0,454,197.91Z" />

</svg>